<svg xmlns="http://www.w3.org/2000/svg" viewBox="0 0 900 480" width="900" height="480"><rect width="900" height="480" fill="#0D0F14"/><text x="450" y="24" text-anchor="middle" font-family="Inter,sans-serif" font-size="14" font-weight="700" fill="#A78BFA">AIOX Layer Map — L1 a L4</text><rect id="L1" x="20" y="40" width="860" height="98" rx="7" fill="#EF444418" stroke="#EF4444" stroke-width="1.5"/><rect x="28" y="50" width="32" height="20" rx="3" fill="#EF4444"/><text x="44" y="64" text-anchor="middle" font-family="Inter,sans-serif" font-size="9" font-weight="900" fill="#fff">L1</text><text x="72" y="64" font-family="Inter,sans-serif" font-size="11" font-weight="700" fill="#EF4444">L1 — Framework Core</text><text x="72" y="78" font-family="Inter,sans-serif" font-size="9" fill="#9CA3AF">NEVER modify</text><rect x="28" y="88" width="120" height="20" rx="3" fill="#EF444422" stroke="#EF444455" stroke-width="0.5"/><text x="34" y="101" font-family="Courier New,monospace" font-size="8" fill="#EF4444">.aiox-core/core/</text><rect x="154" y="88" width="133" height="20" rx="3" fill="#EF444422" stroke="#EF444455" stroke-width="0.5"/><text x="160" y="101" font-family="Courier New,monospace" font-size="8" fill="#EF4444">.aiox-core/consti…</text><rect x="293" y="88" width="87.5" height="20" rx="3" fill="#EF444422" stroke="#EF444455" stroke-width="0.5"/><text x="299" y="101" font-family="Courier New,monospace" font-size="8" fill="#EF4444">bin/aiox.js</text><rect x="386.5" y="88" width="120" height="20" rx="3" fill="#EF444422" stroke="#EF444455" stroke-width="0.5"/><text x="392.5" y="101" font-family="Courier New,monospace" font-size="8" fill="#EF4444">bin/aiox-init.js</text><rect id="L2" x="20" y="148" width="860" height="98" rx="7" fill="#F9731618" stroke="#F97316" stroke-width="1.5"/><rect x="28" y="158" width="32" height="20" rx="3" fill="#F97316"/><text x="44" y="172" text-anchor="middle" font-family="Inter,sans-serif" font-size="9" font-weight="900" fill="#fff">L2</text><text x="72" y="172" font-family="Inter,sans-serif" font-size="11" font-weight="700" fill="#F97316">L2 — Framework Templates</text><text x="72" y="186" font-family="Inter,sans-serif" font-size="9" fill="#9CA3AF">NEVER modify (extend-only)</text><rect x="28" y="196" width="133" height="20" rx="3" fill="#F9731622" stroke="#F9731655" stroke-width="0.5"/><text x="34" y="209" font-family="Courier New,monospace" font-size="8" fill="#F97316">.aiox-core/develo…</text><rect x="167" y="196" width="133" height="20" rx="3" fill="#F9731622" stroke="#F9731655" stroke-width="0.5"/><text x="173" y="209" font-family="Courier New,monospace" font-size="8" fill="#F97316">.aiox-core/develo…</text><rect x="306" y="196" width="133" height="20" rx="3" fill="#F9731622" stroke="#F9731655" stroke-width="0.5"/><text x="312" y="209" font-family="Courier New,monospace" font-size="8" fill="#F97316">.aiox-core/develo…</text><rect x="445" y="196" width="133" height="20" rx="3" fill="#F9731622" stroke="#F9731655" stroke-width="0.5"/><text x="451" y="209" font-family="Courier New,monospace" font-size="8" fill="#F97316">.aiox-core/develo…</text><rect id="L3" x="20" y="256" width="860" height="98" rx="7" fill="#EAB30818" stroke="#EAB308" stroke-width="1.5"/><rect x="28" y="266" width="32" height="20" rx="3" fill="#EAB308"/><text x="44" y="280" text-anchor="middle" font-family="Inter,sans-serif" font-size="9" font-weight="900" fill="#fff">L3</text><text x="72" y="280" font-family="Inter,sans-serif" font-size="11" font-weight="700" fill="#EAB308">L3 — Project Config</text><text x="72" y="294" font-family="Inter,sans-serif" font-size="9" fill="#9CA3AF">Mutable (exceptions)</text><rect x="28" y="304" width="120" height="20" rx="3" fill="#EAB30822" stroke="#EAB30855" stroke-width="0.5"/><text x="34" y="317" font-family="Courier New,monospace" font-size="8" fill="#EAB308">.aiox-core/data/</text><rect x="154" y="304" width="133" height="20" rx="3" fill="#EAB30822" stroke="#EAB30855" stroke-width="0.5"/><text x="160" y="317" font-family="Courier New,monospace" font-size="8" fill="#EAB308">agents/*/MEMORY.md</text><rect x="293" y="304" width="120" height="20" rx="3" fill="#EAB30822" stroke="#EAB30855" stroke-width="0.5"/><text x="299" y="317" font-family="Courier New,monospace" font-size="8" fill="#EAB308">core-config.yaml</text><rect id="L4" x="20" y="364" width="860" height="98" rx="7" fill="#22C55E18" stroke="#22C55E" stroke-width="1.5"/><rect x="28" y="374" width="32" height="20" rx="3" fill="#22C55E"/><text x="44" y="388" text-anchor="middle" font-family="Inter,sans-serif" font-size="9" font-weight="900" fill="#fff">L4</text><text x="72" y="388" font-family="Inter,sans-serif" font-size="11" font-weight="700" fill="#22C55E">L4 — Project Runtime</text><text x="72" y="402" font-family="Inter,sans-serif" font-size="9" fill="#9CA3AF">ALWAYS modify</text><rect x="28" y="412" width="100.5" height="20" rx="3" fill="#22C55E22" stroke="#22C55E55" stroke-width="0.5"/><text x="34" y="425" font-family="Courier New,monospace" font-size="8" fill="#22C55E">docs/stories/</text><rect x="134.5" y="412" width="74.5" height="20" rx="3" fill="#22C55E22" stroke="#22C55E55" stroke-width="0.5"/><text x="140.5" y="425" font-family="Courier New,monospace" font-size="8" fill="#22C55E">docs/prd/</text><rect x="215" y="412" width="61.5" height="20" rx="3" fill="#22C55E22" stroke="#22C55E55" stroke-width="0.5"/><text x="221" y="425" font-family="Courier New,monospace" font-size="8" fill="#22C55E">squads/</text><rect x="282.5" y="412" width="55" height="20" rx="3" fill="#22C55E22" stroke="#22C55E55" stroke-width="0.5"/><text x="288.5" y="425" font-family="Courier New,monospace" font-size="8" fill="#22C55E">tests/</text></svg>